<?xml version="1.0" standalone="no"?><svg xmlns:xlink="http://www.w3.org/1999/xlink" xmlns="http://www.w3.org/2000/svg" viewBox="0 0 1080 565.7156306388766" preserveAspectRatio="xMaxYMax slice"><g transform="scale(0.7060854101833207)"><rect x="0" y="0" width="1529.5636363636365" height="801.2" fill="#000000"/><g transform="translate(7.28,7.28) scale(2.9135) rotate(0)"><path d="M10 0L20 10L10 20L0 10L10 0Z" fill="#ab2343"/></g><g transform="translate(80.12,7.28) scale(2.9135) rotate(0)"><path d="M10 0L20 10L10 20L0 10L10 0Z" fill="#ef315d"/></g><g transform="translate(225.79,7.28) scale(2.9135) rotate(0)"><path d="M10 0L20 10L10 20L0 10L10 0Z" fill="#d42b53"/></g><g transform="translate(371.47,7.28) scale(2.9135) rotate(0)"><path d="M10 0L20 10L10 20L0 10L10 0Z" fill="#671528"/></g><g transform="translate(517.14,7.28) scale(2.9135) rotate(0)"><path d="M10 0L20 10L10 20L0 10L10 0Z" fill="#952527"/></g><g transform="translate(589.97,7.28) scale(2.9135) rotate(0)"><path d="M10 0L20 10L10 20L0 10L10 0Z" fill="#bd2f31"/></g><g transform="translate(662.81,7.28) scale(2.9135) rotate(0)"><path d="M10 0L20 10L10 20L0 10L10 0Z" fill="#330d0d"/></g><g transform="translate(735.65,7.28) scale(2.9135) rotate(0)"><path d="M10 0L20 10L10 20L0 10L10 0Z" fill="#881c35"/></g><g transform="translate(808.48,7.28) scale(2.9135) rotate(0)"><path d="M10 0L20 10L10 20L0 10L10 0Z" fill="#030101"/></g><g transform="translate(881.32,7.28) scale(2.9135) rotate(0)"><path d="M10 0L20 10L10 20L0 10L10 0Z" fill="#79192f"/></g><g transform="translate(954.16,7.28) scale(2.9135) rotate(0)"><path d="M10 0L20 10L10 20L0 10L10 0Z" fill="#100404"/></g><g transform="translate(1099.83,7.28) scale(2.9135) rotate(0)"><path d="M10 0L20 10L10 20L0 10L10 0Z" fill="#3f1010"/></g><g transform="translate(1245.5,7.28) scale(2.9135) rotate(0)"><path d="M10 0L20 10L10 20L0 10L10 0Z" fill="#3f1010"/></g><g transform="translate(1464.01,7.28) scale(2.9135) rotate(0)"><path d="M10 0L20 10L10 20L0 10L10 0Z" fill="#62191a"/></g><g transform="translate(7.28,80.12) scale(2.9135) rotate(0)"><path d="M10 0L20 10L10 20L0 10L10 0Z" fill="#460e1b"/></g><g transform="translate(80.12,80.12) scale(2.9135) rotate(0)"><path d="M10 0L20 10L10 20L0 10L10 0Z" fill="#7f2021"/></g><g transform="translate(152.96,80.12) scale(2.9135) rotate(0)"><path d="M10 0L20 10L10 20L0 10L10 0Z" fill="#d22b52"/></g><g transform="translate(225.79,80.12) scale(2.9135) rotate(0)"><path d="M10 0L20 10L10 20L0 10L10 0Z" fill="#771e1f"/></g><g transform="translate(371.47,80.12) scale(2.9135) rotate(0)"><path d="M10 0L20 10L10 20L0 10L10 0Z" fill="#2f0a12"/></g><g transform="translate(444.3,80.12) scale(2.9135) rotate(0)"><path d="M10 0L20 10L10 20L0 10L10 0Z" fill="#b52d2f"/></g><g transform="translate(589.97,80.12) scale(2.9135) rotate(0)"><path d="M10 0L20 10L10 20L0 10L10 0Z" fill="#b52d2f"/></g><g transform="translate(662.81,80.12) scale(2.9135) rotate(0)"><path d="M10 0L20 10L10 20L0 10L10 0Z" fill="#651527"/></g><g transform="translate(881.32,80.12) scale(2.9135) rotate(0)"><path d="M10 0L20 10L10 20L0 10L10 0Z" fill="#761e1f"/></g><g transform="translate(1026.99,80.12) scale(2.9135) rotate(0)"><path d="M10 0L20 10L10 20L0 10L10 0Z" fill="#e32f59"/></g><g transform="translate(1172.67,80.12) scale(2.9135) rotate(0)"><path d="M10 0L20 10L10 20L0 10L10 0Z" fill="#781e1f"/></g><g transform="translate(1318.34,80.12) scale(2.9135) rotate(0)"><path d="M10 0L20 10L10 20L0 10L10 0Z" fill="#160606"/></g><g transform="translate(1391.17,80.12) scale(2.9135) rotate(0)"><path d="M10 0L20 10L10 20L0 10L10 0Z" fill="#200808"/></g><g transform="translate(7.28,152.96) scale(2.9135) rotate(0)"><path d="M10 0L20 10L10 20L0 10L10 0Z" fill="#902425"/></g><g transform="translate(80.12,152.96) scale(2.9135) rotate(0)"><path d="M10 0L20 10L10 20L0 10L10 0Z" fill="#8e2325"/></g><g transform="translate(152.96,152.96) scale(2.9135) rotate(0)"><path d="M10 0L20 10L10 20L0 10L10 0Z" fill="#ca294f"/></g><g transform="translate(225.79,152.96) scale(2.9135) rotate(0)"><path d="M10 0L20 10L10 20L0 10L10 0Z" fill="#130408"/></g><g transform="translate(298.63,152.96) scale(2.9135) rotate(0)"><path d="M10 0L20 10L10 20L0 10L10 0Z" fill="#2c0911"/></g><g transform="translate(371.47,152.96) scale(2.9135) rotate(0)"><path d="M10 0L20 10L10 20L0 10L10 0Z" fill="#c2284c"/></g><g transform="translate(444.3,152.96) scale(2.9135) rotate(0)"><path d="M10 0L20 10L10 20L0 10L10 0Z" fill="#5a1223"/></g><g transform="translate(517.14,152.96) scale(2.9135) rotate(0)"><path d="M10 0L20 10L10 20L0 10L10 0Z" fill="#330d0d"/></g><g transform="translate(662.81,152.96) scale(2.9135) rotate(0)"><path d="M10 0L20 10L10 20L0 10L10 0Z" fill="#4d1314"/></g><g transform="translate(808.48,152.96) scale(2.9135) rotate(0)"><path d="M10 0L20 10L10 20L0 10L10 0Z" fill="#a1282a"/></g><g transform="translate(881.32,152.96) scale(2.9135) rotate(0)"><path d="M10 0L20 10L10 20L0 10L10 0Z" fill="#be274a"/></g><g transform="translate(954.16,152.96) scale(2.9135) rotate(0)"><path d="M10 0L20 10L10 20L0 10L10 0Z" fill="#571222"/></g><g transform="translate(1026.99,152.96) scale(2.9135) rotate(0)"><path d="M10 0L20 10L10 20L0 10L10 0Z" fill="#741d1e"/></g><g transform="translate(1099.83,152.96) scale(2.9135) rotate(0)"><path d="M10 0L20 10L10 20L0 10L10 0Z" fill="#982628"/></g><g transform="translate(1245.5,152.96) scale(2.9135) rotate(0)"><path d="M10 0L20 10L10 20L0 10L10 0Z" fill="#962527"/></g><g transform="translate(1318.34,152.96) scale(2.9135) rotate(0)"><path d="M10 0L20 10L10 20L0 10L10 0Z" fill="#5a1617"/></g><g transform="translate(1391.17,152.96) scale(2.9135) rotate(0)"><path d="M10 0L20 10L10 20L0 10L10 0Z" fill="#b12445"/></g><g transform="translate(1464.01,152.96) scale(2.9135) rotate(0)"><path d="M10 0L20 10L10 20L0 10L10 0Z" fill="#110404"/></g><g transform="translate(7.28,225.79) scale(2.9135) rotate(0)"><path d="M10 0L20 10L10 20L0 10L10 0Z" fill="#0b0303"/></g><g transform="translate(80.12,225.79) scale(2.9135) rotate(0)"><path d="M10 0L20 10L10 20L0 10L10 0Z" fill="#9f203e"/></g><g transform="translate(152.96,225.79) scale(2.9135) rotate(0)"><path d="M10 0L20 10L10 20L0 10L10 0Z" fill="#701c1d"/></g><g transform="translate(225.79,225.79) scale(2.9135) rotate(0)"><path d="M10 0L20 10L10 20L0 10L10 0Z" fill="#872223"/></g><g transform="translate(298.63,225.79) scale(2.9135) rotate(0)"><path d="M10 0L20 10L10 20L0 10L10 0Z" fill="#d72c54"/></g><g transform="translate(371.47,225.79) scale(2.9135) rotate(0)"><path d="M10 0L20 10L10 20L0 10L10 0Z" fill="#4f1415"/></g><g transform="translate(444.3,225.79) scale(2.9135) rotate(0)"><path d="M10 0L20 10L10 20L0 10L10 0Z" fill="#c7294e"/></g><g transform="translate(517.14,225.79) scale(2.9135) rotate(0)"><path d="M10 0L20 10L10 20L0 10L10 0Z" fill="#601819"/></g><g transform="translate(589.97,225.79) scale(2.9135) rotate(0)"><path d="M10 0L20 10L10 20L0 10L10 0Z" fill="#581222"/></g><g transform="translate(735.65,225.79) scale(2.9135) rotate(0)"><path d="M10 0L20 10L10 20L0 10L10 0Z" fill="#411011"/></g><g transform="translate(808.48,225.79) scale(2.9135) rotate(0)"><path d="M10 0L20 10L10 20L0 10L10 0Z" fill="#c23032"/></g><g transform="translate(881.32,225.79) scale(2.9135) rotate(0)"><path d="M10 0L20 10L10 20L0 10L10 0Z" fill="#6f1c1d"/></g><g transform="translate(954.16,225.79) scale(2.9135) rotate(0)"><path d="M10 0L20 10L10 20L0 10L10 0Z" fill="#761d1f"/></g><g transform="translate(1245.5,225.79) scale(2.9135) rotate(0)"><path d="M10 0L20 10L10 20L0 10L10 0Z" fill="#3d0f10"/></g><g transform="translate(1318.34,225.79) scale(2.9135) rotate(0)"><path d="M10 0L20 10L10 20L0 10L10 0Z" fill="#480f1c"/></g><g transform="translate(1391.17,225.79) scale(2.9135) rotate(0)"><path d="M10 0L20 10L10 20L0 10L10 0Z" fill="#872223"/></g><g transform="translate(1464.01,225.79) scale(2.9135) rotate(0)"><path d="M10 0L20 10L10 20L0 10L10 0Z" fill="#892224"/></g><g transform="translate(7.28,298.63) scale(2.9135) rotate(0)"><path d="M10 0L20 10L10 20L0 10L10 0Z" fill="#e32e59"/></g><g transform="translate(80.12,298.63) scale(2.9135) rotate(0)"><path d="M10 0L20 10L10 20L0 10L10 0Z" fill="#aa2342"/></g><g transform="translate(225.79,298.63) scale(2.9135) rotate(0)"><path d="M10 0L20 10L10 20L0 10L10 0Z" fill="#872223"/></g><g transform="translate(298.63,298.63) scale(2.9135) rotate(0)"><path d="M10 0L20 10L10 20L0 10L10 0Z" fill="#901d38"/></g><g transform="translate(371.47,298.63) scale(2.9135) rotate(0)"><path d="M10 0L20 10L10 20L0 10L10 0Z" fill="#b02445"/></g><g transform="translate(444.3,298.63) scale(2.9135) rotate(0)"><path d="M10 0L20 10L10 20L0 10L10 0Z" fill="#c2284c"/></g><g transform="translate(662.81,298.63) scale(2.9135) rotate(0)"><path d="M10 0L20 10L10 20L0 10L10 0Z" fill="#220909"/></g><g transform="translate(735.65,298.63) scale(2.9135) rotate(0)"><path d="M10 0L20 10L10 20L0 10L10 0Z" fill="#21070d"/></g><g transform="translate(881.32,298.63) scale(2.9135) rotate(0)"><path d="M10 0L20 10L10 20L0 10L10 0Z" fill="#972627"/></g><g transform="translate(954.16,298.63) scale(2.9135) rotate(0)"><path d="M10 0L20 10L10 20L0 10L10 0Z" fill="#701c1d"/></g><g transform="translate(1026.99,298.63) scale(2.9135) rotate(0)"><path d="M10 0L20 10L10 20L0 10L10 0Z" fill="#370b16"/></g><g transform="translate(1099.83,298.63) scale(2.9135) rotate(0)"><path d="M10 0L20 10L10 20L0 10L10 0Z" fill="#190607"/></g><g transform="translate(1245.5,298.63) scale(2.9135) rotate(0)"><path d="M10 0L20 10L10 20L0 10L10 0Z" fill="#a2213f"/></g><g transform="translate(1318.34,298.63) scale(2.9135) rotate(0)"><path d="M10 0L20 10L10 20L0 10L10 0Z" fill="#4b1314"/></g><g transform="translate(1464.01,298.63) scale(2.9135) rotate(0)"><path d="M10 0L20 10L10 20L0 10L10 0Z" fill="#661a1b"/></g><g transform="translate(7.28,371.47) scale(2.9135) rotate(0)"><path d="M10 0L20 10L10 20L0 10L10 0Z" fill="#7d1a31"/></g><g transform="translate(152.96,371.47) scale(2.9135) rotate(0)"><path d="M10 0L20 10L10 20L0 10L10 0Z" fill="#7d1a31"/></g><g transform="translate(225.79,371.47) scale(2.9135) rotate(0)"><path d="M10 0L20 10L10 20L0 10L10 0Z" fill="#c3284c"/></g><g transform="translate(371.47,371.47) scale(2.9135) rotate(0)"><path d="M10 0L20 10L10 20L0 10L10 0Z" fill="#651528"/></g><g transform="translate(444.3,371.47) scale(2.9135) rotate(0)"><path d="M10 0L20 10L10 20L0 10L10 0Z" fill="#c33133"/></g><g transform="translate(662.81,371.47) scale(2.9135) rotate(0)"><path d="M10 0L20 10L10 20L0 10L10 0Z" fill="#300a13"/></g><g transform="translate(735.65,371.47) scale(2.9135) rotate(0)"><path d="M10 0L20 10L10 20L0 10L10 0Z" fill="#bb2649"/></g><g transform="translate(881.32,371.47) scale(2.9135) rotate(0)"><path d="M10 0L20 10L10 20L0 10L10 0Z" fill="#4b0f1d"/></g><g transform="translate(954.16,371.47) scale(2.9135) rotate(0)"><path d="M10 0L20 10L10 20L0 10L10 0Z" fill="#380e0e"/></g><g transform="translate(1026.99,371.47) scale(2.9135) rotate(0)"><path d="M10 0L20 10L10 20L0 10L10 0Z" fill="#060102"/></g><g transform="translate(1099.83,371.47) scale(2.9135) rotate(0)"><path d="M10 0L20 10L10 20L0 10L10 0Z" fill="#2e0b0c"/></g><g transform="translate(1172.67,371.47) scale(2.9135) rotate(0)"><path d="M10 0L20 10L10 20L0 10L10 0Z" fill="#460e1b"/></g><g transform="translate(1245.5,371.47) scale(2.9135) rotate(0)"><path d="M10 0L20 10L10 20L0 10L10 0Z" fill="#611819"/></g><g transform="translate(1318.34,371.47) scale(2.9135) rotate(0)"><path d="M10 0L20 10L10 20L0 10L10 0Z" fill="#911e39"/></g><g transform="translate(7.28,444.3) scale(2.9135) rotate(0)"><path d="M10 0L20 10L10 20L0 10L10 0Z" fill="#941e3a"/></g><g transform="translate(80.12,444.3) scale(2.9135) rotate(0)"><path d="M10 0L20 10L10 20L0 10L10 0Z" fill="#2f0a12"/></g><g transform="translate(152.96,444.3) scale(2.9135) rotate(0)"><path d="M10 0L20 10L10 20L0 10L10 0Z" fill="#ca294f"/></g><g transform="translate(225.79,444.3) scale(2.9135) rotate(0)"><path d="M10 0L20 10L10 20L0 10L10 0Z" fill="#fa3361"/></g><g transform="translate(298.63,444.3) scale(2.9135) rotate(0)"><path d="M10 0L20 10L10 20L0 10L10 0Z" fill="#421111"/></g><g transform="translate(444.3,444.3) scale(2.9135) rotate(0)"><path d="M10 0L20 10L10 20L0 10L10 0Z" fill="#380e0f"/></g><g transform="translate(517.14,444.3) scale(2.9135) rotate(0)"><path d="M10 0L20 10L10 20L0 10L10 0Z" fill="#a1213f"/></g><g transform="translate(662.81,444.3) scale(2.9135) rotate(0)"><path d="M10 0L20 10L10 20L0 10L10 0Z" fill="#f0315d"/></g><g transform="translate(735.65,444.3) scale(2.9135) rotate(0)"><path d="M10 0L20 10L10 20L0 10L10 0Z" fill="#892224"/></g><g transform="translate(808.48,444.3) scale(2.9135) rotate(0)"><path d="M10 0L20 10L10 20L0 10L10 0Z" fill="#1f060c"/></g><g transform="translate(881.32,444.3) scale(2.9135) rotate(0)"><path d="M10 0L20 10L10 20L0 10L10 0Z" fill="#a4292b"/></g><g transform="translate(954.16,444.3) scale(2.9135) rotate(0)"><path d="M10 0L20 10L10 20L0 10L10 0Z" fill="#561516"/></g><g transform="translate(1099.83,444.3) scale(2.9135) rotate(0)"><path d="M10 0L20 10L10 20L0 10L10 0Z" fill="#240909"/></g><g transform="translate(1172.67,444.3) scale(2.9135) rotate(0)"><path d="M10 0L20 10L10 20L0 10L10 0Z" fill="#872223"/></g><g transform="translate(1245.5,444.3) scale(2.9135) rotate(0)"><path d="M10 0L20 10L10 20L0 10L10 0Z" fill="#ad2b2d"/></g><g transform="translate(1318.34,444.3) scale(2.9135) rotate(0)"><path d="M10 0L20 10L10 20L0 10L10 0Z" fill="#9c2729"/></g><g transform="translate(7.28,517.14) scale(2.9135) rotate(0)"><path d="M10 0L20 10L10 20L0 10L10 0Z" fill="#0a0203"/></g><g transform="translate(80.12,517.14) scale(2.9135) rotate(0)"><path d="M10 0L20 10L10 20L0 10L10 0Z" fill="#f0315e"/></g><g transform="translate(225.79,517.14) scale(2.9135) rotate(0)"><path d="M10 0L20 10L10 20L0 10L10 0Z" fill="#6c162a"/></g><g transform="translate(371.47,517.14) scale(2.9135) rotate(0)"><path d="M10 0L20 10L10 20L0 10L10 0Z" fill="#25090a"/></g><g transform="translate(444.3,517.14) scale(2.9135) rotate(0)"><path d="M10 0L20 10L10 20L0 10L10 0Z" fill="#4f101f"/></g><g transform="translate(662.81,517.14) scale(2.9135) rotate(0)"><path d="M10 0L20 10L10 20L0 10L10 0Z" fill="#db2d55"/></g><g transform="translate(735.65,517.14) scale(2.9135) rotate(0)"><path d="M10 0L20 10L10 20L0 10L10 0Z" fill="#1d0708"/></g><g transform="translate(881.32,517.14) scale(2.9135) rotate(0)"><path d="M10 0L20 10L10 20L0 10L10 0Z" fill="#b52d2f"/></g><g transform="translate(954.16,517.14) scale(2.9135) rotate(0)"><path d="M10 0L20 10L10 20L0 10L10 0Z" fill="#8a1c36"/></g><g transform="translate(1172.67,517.14) scale(2.9135) rotate(0)"><path d="M10 0L20 10L10 20L0 10L10 0Z" fill="#942527"/></g><g transform="translate(1245.5,517.14) scale(2.9135) rotate(0)"><path d="M10 0L20 10L10 20L0 10L10 0Z" fill="#1f060c"/></g><g transform="translate(1318.34,517.14) scale(2.9135) rotate(0)"><path d="M10 0L20 10L10 20L0 10L10 0Z" fill="#2c0b0b"/></g><g transform="translate(7.28,589.97) scale(2.9135) rotate(0)"><path d="M10 0L20 10L10 20L0 10L10 0Z" fill="#a32140"/></g><g transform="translate(80.12,589.97) scale(2.9135) rotate(0)"><path d="M10 0L20 10L10 20L0 10L10 0Z" fill="#cd2a50"/></g><g transform="translate(225.79,589.97) scale(2.9135) rotate(0)"><path d="M10 0L20 10L10 20L0 10L10 0Z" fill="#451112"/></g><g transform="translate(298.63,589.97) scale(2.9135) rotate(0)"><path d="M10 0L20 10L10 20L0 10L10 0Z" fill="#0b0303"/></g><g transform="translate(371.47,589.97) scale(2.9135) rotate(0)"><path d="M10 0L20 10L10 20L0 10L10 0Z" fill="#c73234"/></g><g transform="translate(444.3,589.97) scale(2.9135) rotate(0)"><path d="M10 0L20 10L10 20L0 10L10 0Z" fill="#2c0911"/></g><g transform="translate(517.14,589.97) scale(2.9135) rotate(0)"><path d="M10 0L20 10L10 20L0 10L10 0Z" fill="#c13032"/></g><g transform="translate(589.97,589.97) scale(2.9135) rotate(0)"><path d="M10 0L20 10L10 20L0 10L10 0Z" fill="#7f2021"/></g><g transform="translate(735.65,589.97) scale(2.9135) rotate(0)"><path d="M10 0L20 10L10 20L0 10L10 0Z" fill="#561221"/></g><g transform="translate(808.48,589.97) scale(2.9135) rotate(0)"><path d="M10 0L20 10L10 20L0 10L10 0Z" fill="#8c2324"/></g><g transform="translate(881.32,589.97) scale(2.9135) rotate(0)"><path d="M10 0L20 10L10 20L0 10L10 0Z" fill="#290a0b"/></g><g transform="translate(954.16,589.97) scale(2.9135) rotate(0)"><path d="M10 0L20 10L10 20L0 10L10 0Z" fill="#9d2729"/></g><g transform="translate(1026.99,589.97) scale(2.9135) rotate(0)"><path d="M10 0L20 10L10 20L0 10L10 0Z" fill="#080203"/></g><g transform="translate(1245.5,589.97) scale(2.9135) rotate(0)"><path d="M10 0L20 10L10 20L0 10L10 0Z" fill="#70172c"/></g><g transform="translate(1318.34,589.97) scale(2.9135) rotate(0)"><path d="M10 0L20 10L10 20L0 10L10 0Z" fill="#8c2324"/></g><g transform="translate(1464.01,589.97) scale(2.9135) rotate(0)"><path d="M10 0L20 10L10 20L0 10L10 0Z" fill="#2b0911"/></g><g transform="translate(80.12,662.81) scale(2.9135) rotate(0)"><path d="M10 0L20 10L10 20L0 10L10 0Z" fill="#8d1d37"/></g><g transform="translate(152.96,662.81) scale(2.9135) rotate(0)"><path d="M10 0L20 10L10 20L0 10L10 0Z" fill="#a1282a"/></g><g transform="translate(298.63,662.81) scale(2.9135) rotate(0)"><path d="M10 0L20 10L10 20L0 10L10 0Z" fill="#852123"/></g><g transform="translate(371.47,662.81) scale(2.9135) rotate(0)"><path d="M10 0L20 10L10 20L0 10L10 0Z" fill="#0b0303"/></g><g transform="translate(444.3,662.81) scale(2.9135) rotate(0)"><path d="M10 0L20 10L10 20L0 10L10 0Z" fill="#bc2749"/></g><g transform="translate(517.14,662.81) scale(2.9135) rotate(0)"><path d="M10 0L20 10L10 20L0 10L10 0Z" fill="#370b15"/></g><g transform="translate(735.65,662.81) scale(2.9135) rotate(0)"><path d="M10 0L20 10L10 20L0 10L10 0Z" fill="#521515"/></g><g transform="translate(808.48,662.81) scale(2.9135) rotate(0)"><path d="M10 0L20 10L10 20L0 10L10 0Z" fill="#1a0707"/></g><g transform="translate(881.32,662.81) scale(2.9135) rotate(0)"><path d="M10 0L20 10L10 20L0 10L10 0Z" fill="#77182e"/></g><g transform="translate(954.16,662.81) scale(2.9135) rotate(0)"><path d="M10 0L20 10L10 20L0 10L10 0Z" fill="#9a2728"/></g><g transform="translate(1026.99,662.81) scale(2.9135) rotate(0)"><path d="M10 0L20 10L10 20L0 10L10 0Z" fill="#a3292a"/></g><g transform="translate(1099.83,662.81) scale(2.9135) rotate(0)"><path d="M10 0L20 10L10 20L0 10L10 0Z" fill="#270a0a"/></g><g transform="translate(1245.5,662.81) scale(2.9135) rotate(0)"><path d="M10 0L20 10L10 20L0 10L10 0Z" fill="#531516"/></g><g transform="translate(1318.34,662.81) scale(2.9135) rotate(0)"><path d="M10 0L20 10L10 20L0 10L10 0Z" fill="#ee315d"/></g><g transform="translate(1464.01,662.81) scale(2.9135) rotate(0)"><path d="M10 0L20 10L10 20L0 10L10 0Z" fill="#882223"/></g><g transform="translate(7.28,735.65) scale(2.9135) rotate(0)"><path d="M10 0L20 10L10 20L0 10L10 0Z" fill="#a1282a"/></g><g transform="translate(225.79,735.65) scale(2.9135) rotate(0)"><path d="M10 0L20 10L10 20L0 10L10 0Z" fill="#22070d"/></g><g transform="translate(298.63,735.65) scale(2.9135) rotate(0)"><path d="M10 0L20 10L10 20L0 10L10 0Z" fill="#481213"/></g><g transform="translate(371.47,735.65) scale(2.9135) rotate(0)"><path d="M10 0L20 10L10 20L0 10L10 0Z" fill="#b32546"/></g><g transform="translate(444.3,735.65) scale(2.9135) rotate(0)"><path d="M10 0L20 10L10 20L0 10L10 0Z" fill="#170606"/></g><g transform="translate(589.97,735.65) scale(2.9135) rotate(0)"><path d="M10 0L20 10L10 20L0 10L10 0Z" fill="#350d0e"/></g><g transform="translate(662.81,735.65) scale(2.9135) rotate(0)"><path d="M10 0L20 10L10 20L0 10L10 0Z" fill="#b92e30"/></g><g transform="translate(735.65,735.65) scale(2.9135) rotate(0)"><path d="M10 0L20 10L10 20L0 10L10 0Z" fill="#6c162a"/></g><g transform="translate(808.48,735.65) scale(2.9135) rotate(0)"><path d="M10 0L20 10L10 20L0 10L10 0Z" fill="#bc2749"/></g><g transform="translate(881.32,735.65) scale(2.9135) rotate(0)"><path d="M10 0L20 10L10 20L0 10L10 0Z" fill="#b72e2f"/></g><g transform="translate(1026.99,735.65) scale(2.9135) rotate(0)"><path d="M10 0L20 10L10 20L0 10L10 0Z" fill="#0b0204"/></g><g transform="translate(1099.83,735.65) scale(2.9135) rotate(0)"><path d="M10 0L20 10L10 20L0 10L10 0Z" fill="#4a1313"/></g><g transform="translate(1172.67,735.65) scale(2.9135) rotate(0)"><path d="M10 0L20 10L10 20L0 10L10 0Z" fill="#6c162a"/></g><g transform="translate(1318.34,735.65) scale(2.9135) rotate(0)"><path d="M10 0L20 10L10 20L0 10L10 0Z" fill="#551121"/></g><g transform="translate(1464.01,735.65) scale(2.9135) rotate(0)"><path d="M10 0L20 10L10 20L0 10L10 0Z" fill="#bc2f31"/></g></g></svg>